<svg width="20" height="18" viewBox="0 0 20 18" fill="none" xmlns="http://www.w3.org/2000/svg">
<path id="icon" d="M11.25 8.42494H7.5C4.88281 8.42494 2.73438 10.1827 2.07031 12.5655C1.91406 12.0968 1.875 11.5499 1.875 10.9249C1.875 8.19056 4.10156 5.92494 6.875 5.92494H11.25H12.1875C12.6953 5.92494 13.125 5.53432 13.125 4.98744V4.04994V2.95619L17.8125 7.17494L13.125 11.4327V10.2999V9.36244C13.125 8.85463 12.6953 8.42494 12.1875 8.42494H11.25ZM11.25 10.2999V12.1749V12.7999C11.25 13.3077 11.5234 13.7765 11.9922 13.9718C12.4219 14.1671 12.9688 14.089 13.3203 13.7374L19.5703 8.11244C19.8438 7.87806 20 7.56556 20 7.17494C20 6.82338 19.8438 6.51088 19.5703 6.2765L13.3203 0.651504C12.9688 0.299944 12.4219 0.221819 11.9922 0.417132C11.5234 0.612444 11.25 1.08119 11.25 1.54994V2.17494V4.04994H9.375H6.875C3.04688 4.04994 0 7.13588 0 10.9249C0 13.9718 1.48438 15.8858 2.65625 16.9015C2.8125 17.0187 2.96875 17.1358 3.125 17.253C3.24219 17.3311 3.35938 17.4093 3.47656 17.4874C3.63281 17.6046 3.78906 17.6827 3.90625 17.7608C3.98438 17.7999 4.10156 17.7999 4.21875 17.7999C4.64844 17.7999 4.96094 17.4874 4.96094 17.0577C4.96094 16.7843 4.84375 16.5499 4.64844 16.3546C4.64844 16.3155 4.60938 16.3155 4.60938 16.2765C4.49219 16.1983 4.41406 16.0811 4.29688 15.964C4.21875 15.8468 4.17969 15.7687 4.10156 15.6515C3.90625 15.2608 3.75 14.753 3.75 14.089C3.75 12.0187 5.42969 10.339 7.5 10.339H9.375H11.25V10.2999Z" fill="black"/>
</svg>
